<?xml version="1.0" encoding="UTF-8"?>
<svg width="120px" height="43px" viewBox="0 0 120 43" version="1.1" xmlns="http://www.w3.org/2000/svg" xmlns:xlink="http://www.w3.org/1999/xlink">
    <title>Logo/Evo-black</title>
    <g id="EVO-Agency" stroke="none" stroke-width="1" fill="none" fill-rule="evenodd">
        <g id="Home" transform="translate(-437.000000, -7386.000000)" fill="#6C748D">
            <g id="Logo/Evo-black" transform="translate(437.000000, 7386.000000)">
                <path d="M97.8358209,42.5612245 C85.8422905,42.5612245 76.119403,33.0334561 76.119403,21.2806122 C76.119403,9.52776836 85.8422905,0 97.8358209,0 C109.829351,0 119.552239,9.52776836 119.552239,21.2806122 C119.552239,33.0334561 109.829351,42.5612245 97.8358209,42.5612245 M97.8358209,39.6055839 C108.163667,39.6055839 116.53607,31.4011989 116.53607,21.2806122 C116.53607,11.1604482 108.163667,2.95606313 97.8358209,2.95606313 C87.5079748,2.95606313 79.1355721,11.1604482 79.1355721,21.2806122 C79.1355721,31.4011989 87.5079748,39.6055839 97.8358209,39.6055839" id="Fill-3"></path>
                <path d="M40.4299701,1.89423776 C40.1832537,1.32997245 39.6172836,0.963354386 38.9904179,0.963354386 L1.66997015,0.963354386 C0.804895522,0.963354386 0.103701493,1.65071735 0.103701493,2.49843163 C0.103701493,3.34614592 0.804895522,4.03282959 1.66997015,4.03282959 L37.9574328,4.03282959 L54.4538507,41.7863908 C54.9942985,43.0228602 56.7813134,43.0281255 57.3293731,41.7951663 L74.5175821,3.11096224 C74.862806,2.33389082 74.4996716,1.42957449 73.7066866,1.09127857 C72.9137015,0.752982653 71.9913134,1.10882959 71.6456418,1.88546224 L55.9059403,37.3108806 L40.4299701,1.89423776 Z" id="Fill-6"></path>
                <path d="M3.2360597,23.0621724 L31.0823284,23.0621724 C31.947403,23.0621724 32.648597,22.3754888 32.648597,21.5277745 C32.648597,20.6800602 31.947403,19.9929378 31.0823284,19.9929378 L1.66979104,19.9929378 C0.805164179,19.9929378 0.103970149,20.6800602 0.103970149,21.5277745 L0.103970149,40.6583867 C0.103970149,41.5056622 0.805164179,42.1932235 1.66979104,42.1932235 L36.3632239,42.1932235 C37.2282985,42.1932235 37.9294925,41.5056622 37.9294925,40.6583867 C37.9294925,39.8106724 37.2282985,39.12355 36.3632239,39.12355 L3.2360597,39.12355 L3.2360597,23.0621724 Z" id="Fill-8"></path>
            </g>
        </g>
    </g>
</svg>