<svg width="195" height="30" viewBox="0 0 195 30" fill="none" xmlns="http://www.w3.org/2000/svg">
<g clip-path="url(#clip0)">
<path d="M27.721 19.6194L26.9956 19.308C28.4464 16.1419 28.55 12.5606 27.3065 9.29072C26.0629 6.02083 23.6276 3.42567 20.4669 1.97238C13.8864 -0.986093 6.11416 1.92048 3.16071 8.51218L2.4353 8.20076C3.98975 4.82706 6.73594 2.2319 10.2075 0.882419C13.6791 -0.415159 17.4616 -0.311353 20.8296 1.19384C24.1976 2.69903 26.7883 5.44989 28.0837 8.9274C29.3791 12.4568 29.2754 16.2457 27.721 19.6194Z" fill="#00666B"/>
<path d="M27.0992 19.7751C26.9955 19.6713 26.8919 19.5675 26.7365 19.5156L27.2028 18.8408C27.3582 18.9446 27.5137 19.0484 27.6173 19.1522L27.0992 19.7751Z" fill="#008A94"/>
<path d="M24.2494 28.3391C23.8348 28.3391 23.4721 28.2872 23.0576 28.1834L23.2649 27.4048C23.5758 27.4567 23.9385 27.5086 24.2494 27.5086C24.9748 27.5086 25.7002 27.301 26.3738 26.9377C28.4982 25.7439 29.2754 23.0969 28.0837 20.9689C27.8246 20.5017 27.4619 20.0865 27.0474 19.7232L27.5655 19.1003C28.0318 19.5156 28.4464 19.9827 28.7573 20.5536C30.1563 23.045 29.2236 26.263 26.7365 27.6125C26.0111 28.1315 25.1302 28.3391 24.2494 28.3391Z" fill="#008A94"/>
<path d="M20.6742 26.8858C20.5188 26.6263 20.4152 26.3668 20.3115 26.1073L21.0887 25.8478C21.1406 26.0554 21.2442 26.263 21.3478 26.4706L20.6742 26.8858Z" fill="#FFDC00"/>
<path d="M20.3633 26.1591C20.156 25.5882 20.0524 25.0173 20.0524 24.3944C20.0524 21.5397 22.384 19.2041 25.2339 19.2041C25.8556 19.2041 26.3738 19.3079 26.9438 19.5155L27.2546 19.6193C27.8246 19.8788 28.2909 20.1903 28.7573 20.5536L28.1873 21.1245C27.8246 20.8131 27.4101 20.5017 26.9438 20.346L26.6847 20.2422C26.2183 20.0865 25.752 19.9826 25.2339 19.9826C24.0421 19.9826 22.954 20.4498 22.125 21.2802C21.2959 22.1107 20.8296 23.2006 20.8296 24.3944C20.8296 24.9134 20.9332 25.3806 21.0887 25.8477L20.3633 26.1591Z" fill="#FFDC00"/>
<path d="M16.5289 30C16.0626 30 15.6481 30 15.1817 29.9481C11.5029 29.5847 8.13491 27.8719 5.80324 25.0173C3.41976 22.1626 2.33164 18.5294 2.64253 14.8442C3.26431 8.20065 8.54943 2.90653 15.1817 2.28369L15.2336 3.06224C8.96395 3.63317 3.98972 8.61587 3.41976 14.8442C3.10887 18.3737 4.14517 21.7474 6.37321 24.4463C8.60125 27.1453 11.762 28.8062 15.2336 29.1176C15.6481 29.1695 16.1144 29.1695 16.5289 29.1695C18.4979 29.1695 20.4669 28.7024 22.2286 27.8719L22.5913 28.5986C20.7259 29.4809 18.6533 30 16.5289 30Z" fill="#7FBEDB"/>
<path d="M22.1769 28.5467C21.7623 28.2353 21.3996 27.872 21.0887 27.5087L21.7623 26.9896C22.0214 27.3529 22.3323 27.6125 22.695 27.872L22.1769 28.5467Z" fill="#FFDC00"/>
<path d="M15.1818 27.6125C9.84485 27.6125 4.71518 24.4464 2.43532 19.2041C0.932692 15.7266 0.932692 11.6782 2.43532 8.20068L3.16073 8.5121C1.76173 11.782 1.76173 15.5709 3.16073 18.8927C6.01055 25.5363 13.731 28.5986 20.3115 25.7439L20.6224 26.4706C18.9125 27.2491 17.0471 27.6125 15.1818 27.6125Z" fill="#00666B"/>
<path d="M21.0887 27.5086C20.9333 27.301 20.7778 27.0934 20.6742 26.8858L21.3996 26.4706C21.5032 26.6782 21.6069 26.8339 21.7623 26.9896L21.0887 27.5086Z" fill="#FFDC00"/>
<path d="M29.3272 21.4879L28.6018 21.1765C31.3998 14.5329 28.2909 6.85121 21.6586 3.99654C20.0524 3.3218 18.2907 2.95848 16.5289 2.95848C16.1144 2.95848 15.6999 2.95848 15.2336 3.01038L15.1818 2.23183C15.6999 2.17993 16.1662 2.17993 16.5808 2.17993C18.4461 2.17993 20.2596 2.54325 21.9695 3.2699C29.0163 6.28028 32.3325 14.4291 29.3272 21.4879Z" fill="#7FBEDB"/>
<path d="M25.2338 29.5848C24.1457 29.5848 23.1094 29.2734 22.1768 28.5987L22.6431 27.9758C24.6121 29.4291 27.3582 28.962 28.7573 27.0416C29.949 25.4326 29.8972 23.2008 28.6018 21.6437L29.2236 21.1246C30.7262 22.9412 30.778 25.5883 29.379 27.4568C28.3945 28.8063 26.8401 29.5848 25.2338 29.5848Z" fill="#FFDC00"/>
<path d="M23.1094 28.1834C22.4876 28.0277 21.9177 27.8201 21.3995 27.4568C21.1923 27.301 20.985 27.1453 20.7777 26.9896C20.5705 26.782 20.3632 26.5744 20.2078 26.3149C19.3787 25.2249 18.9642 23.8754 19.1715 22.4741C19.3269 21.0727 20.0523 19.8789 21.1404 18.9965C22.954 17.5952 25.3893 17.5433 27.2546 18.7889L26.7883 19.4637C25.182 18.3737 23.1094 18.4256 21.6068 19.6194C20.6741 20.346 20.1041 21.3841 19.9487 22.526C19.7932 23.6678 20.1041 24.8616 20.8295 25.7959C20.985 26.0035 21.1404 26.1592 21.2959 26.3668C21.4513 26.5225 21.6068 26.6263 21.814 26.782C22.2285 27.0934 22.7467 27.301 23.2648 27.4048L23.1094 28.1834Z" fill="#008A94"/>
<path d="M28.6537 21.5917C28.55 21.4359 28.4982 21.384 28.4982 21.384L28.4464 21.3321L28.2391 21.1245L28.8091 20.5536L29.0164 20.7612C29.12 20.865 29.1718 20.9169 29.2236 20.9688C29.2236 20.9688 29.2754 21.0207 29.3272 21.1245L28.6537 21.5917Z" fill="#FFDC00"/>
<path d="M13.8864 29.9481C6.21779 29.9481 0 23.7197 0 16.09C0 12.3529 1.45082 8.87543 4.04156 6.22837C6.68412 3.63322 10.1557 2.17993 13.8864 2.17993C14.3009 2.17993 14.7672 2.17993 15.2854 2.23183C15.9072 2.28374 16.4771 2.38754 17.0989 2.54325C24.5603 4.30796 29.1718 11.782 27.4101 19.2561L26.6329 19.0484C28.2909 12.0415 23.9385 4.9827 16.8917 3.3218C16.3217 3.16609 15.7517 3.11419 15.1818 3.06228C14.7154 3.01038 14.3009 3.01038 13.8864 3.01038C10.4148 3.01038 7.09864 4.35986 4.66334 6.85121C2.22804 9.34256 0.777224 12.5606 0.777224 16.09C0.777224 23.3045 6.63231 29.1695 13.8346 29.1695C14.2491 29.1695 14.7154 29.1695 15.13 29.1176C17.3062 28.91 19.3788 28.1315 21.1405 26.9377L21.6068 27.6125C19.6897 28.91 17.5134 29.6886 15.1818 29.9481C14.8191 29.9481 14.3527 29.9481 13.8864 29.9481Z" fill="#008A94"/>
<path d="M28.1873 21.1245C27.8246 20.8131 27.4101 20.5017 26.9438 20.346L26.6329 20.2422C26.1666 20.0865 25.7002 19.9826 25.2339 19.9826V19.2041C25.8039 19.2041 26.3738 19.3079 26.892 19.5155L27.2029 19.6193C27.7728 19.8788 28.2392 20.1903 28.7055 20.5536L28.1873 21.1245Z" fill="#FFDC00"/>
<path d="M65.0796 11.3149C65.0796 13.0277 63.6806 14.4291 61.9707 14.4291C60.2608 14.4291 58.8618 13.0277 58.8618 11.3149V3.68518H57.3591V11.3149C57.3591 13.8582 59.4317 15.9343 61.9707 15.9343C64.5096 15.9343 66.5822 13.8582 66.5822 11.3149V3.68518H65.0796V11.3149Z" fill="#7B818B"/>
<path d="M138.812 5.13847H142.595V15.7267H144.097V5.13847H147.828V3.68518H138.812V5.13847Z" fill="#7B818B"/>
<path d="M160.833 15.9862C157.362 15.9862 154.564 13.1834 154.564 9.70594C154.564 6.22843 157.362 3.42566 160.833 3.42566C163.061 3.42566 165.134 4.61943 166.274 6.53985L165.03 7.26649C163.683 4.93085 160.73 4.1523 158.398 5.50178C156.066 6.85127 155.289 9.80974 156.636 12.1454C157.984 14.481 160.937 15.2596 163.269 13.9101C163.994 13.4949 164.616 12.872 165.03 12.1454L166.274 12.872C165.134 14.7924 163.113 15.9862 160.833 15.9862Z" fill="#7B818B"/>
<path d="M121.713 15.7267H130.314V14.2734H123.164V10.2769H129.33V8.82357H123.164V5.19035H130.314V3.73706H121.713V15.7267Z" fill="#7B818B"/>
<path d="M45.338 9.60211H41.5556V5.13844H45.338C46.5816 5.08654 47.6179 6.0208 47.6697 7.26647C47.7215 8.51215 46.7889 9.55021 45.5453 9.60211C45.4417 9.60211 45.3899 9.60211 45.338 9.60211ZM40.1047 3.73706V15.7267H41.5037V11.0554H45.2862C47.307 11.0554 48.9133 9.3945 48.9133 7.42218C48.9133 5.44986 47.2552 3.78896 45.2862 3.78896L40.1047 3.73706Z" fill="#7B818B"/>
<path d="M106.221 10.7959L108.19 5.44989L110.159 10.7959H106.221ZM109.07 3.68518H107.309L102.904 15.7267H104.407L105.702 12.1973H110.677L111.972 15.7267H113.475L109.07 3.68518Z" fill="#7B818B"/>
<path d="M180.73 4.77506C178.036 4.77506 175.86 6.955 175.86 9.65396C175.86 12.3529 178.036 14.4809 180.73 14.4809C183.425 14.4809 185.601 12.301 185.601 9.60206C185.601 6.90309 183.425 4.77506 180.73 4.77506ZM180.73 15.8823C177.259 15.8823 174.461 13.0796 174.461 9.60206C174.461 6.12455 177.259 3.32178 180.73 3.32178C184.202 3.32178 187 6.12455 187 9.60206C187 13.0796 184.202 15.8823 180.73 15.8823Z" fill="#7B818B"/>
<path d="M95.8575 15.7267H88.2407V3.73706H89.6915V14.3253H95.8575V15.7267Z" fill="#7B818B"/>
<path d="M77.9815 3.73706H76.5306V15.7786H77.9815V3.73706Z" fill="#7B818B"/>
<path d="M42.54 24.2388H41.3483L41.9701 22.5779L42.54 24.2388ZM41.4519 21.1246L39.3275 26.7302H40.3638L40.9338 25.225H42.8509L43.4209 26.7302H44.509L42.4364 21.1246H41.4519Z" fill="#7B818B"/>
<path d="M114.252 21.1246H113.267V26.7302H114.252V21.1246Z" fill="#7B818B"/>
<path d="M118.553 25.225L117.102 21.1246H116.065L118.138 26.7302H119.019L121.091 21.1246H120.055L118.553 25.225Z" fill="#7B818B"/>
<path d="M125.185 24.2388H123.941L124.563 22.5779L125.185 24.2388ZM124.097 21.1246L121.972 26.7302H123.009L123.579 25.225H125.444L126.014 26.7302H127.102L125.029 21.1246H124.097Z" fill="#7B818B"/>
<path d="M128.138 22.0589H129.796V26.7302H130.781V22.0589H132.439V21.1246H128.138V22.0589Z" fill="#7B818B"/>
<path d="M148.916 25.0173C148.916 25.4325 148.605 25.7439 148.242 25.7439C148.191 25.7439 148.191 25.7439 148.139 25.7439H146.636V24.2387H148.087C148.812 24.2906 148.916 24.7058 148.916 25.0173ZM148.087 23.3045H146.636V22.0588H148.087C148.709 22.0588 148.761 22.4221 148.761 22.6816C148.761 22.993 148.502 23.3045 148.191 23.3045C148.139 23.3045 148.139 23.3045 148.087 23.3045ZM149.279 23.7197C149.59 23.4602 149.745 23.0969 149.745 22.6816C149.745 21.7993 149.072 21.1245 148.242 21.0726C148.191 21.0726 148.139 21.0726 148.087 21.0726H145.652V26.6782H148.087C149.02 26.7301 149.797 26.0553 149.901 25.1211C149.901 25.0692 149.901 25.0173 149.901 24.9654C149.901 24.4982 149.693 24.0311 149.279 23.7197Z" fill="#7B818B"/>
<path d="M154.771 24.2388H153.528L154.149 22.5779L154.771 24.2388ZM153.735 21.1246L151.61 26.7302H152.647L153.217 25.225H155.134L155.704 26.7302H156.792L154.719 21.1246H153.735Z" fill="#7B818B"/>
<path d="M162.284 25.0174L159.745 21.1246H158.761V26.7302H159.745V22.8374L162.284 26.7302H163.269V21.1246H162.284V25.0174Z" fill="#7B818B"/>
<path d="M170.886 21.1246H169.487L167.103 23.4603V21.1246H166.119V26.7302H167.103V24.7579L167.828 24.0831L169.694 26.7302H170.886L168.502 23.4084L170.886 21.1246Z" fill="#7B818B"/>
<path d="M134.771 26.7302H138.916V25.744H135.755V24.3426H138.501V23.3565H135.755V22.1108H138.916V21.1246H134.771V26.7302Z" fill="#7B818B"/>
<path d="M103.215 22.8893C103.215 23.3046 102.853 23.6679 102.438 23.6679H100.935V22.0589H102.438C102.853 22.1108 103.215 22.4741 103.215 22.8893ZM102.438 21.1246H99.9509V26.7821H100.935V24.7059H102.438C103.423 24.654 104.2 23.8236 104.148 22.8374C104.096 21.8513 103.371 21.1246 102.438 21.1246Z" fill="#7B818B"/>
<path d="M54.2502 25.5883C53.3175 26.1073 52.1258 25.7959 51.6076 24.8616C51.0895 23.9274 51.4004 22.7336 52.333 22.2146C53.2657 21.6955 54.4574 22.007 54.9756 22.9412C55.3383 23.5641 55.2865 24.2907 54.9756 24.8616L54.4574 24.3426L53.732 25.0173L54.2502 25.5883ZM56.2192 23.8755C56.2192 22.2665 54.9238 20.917 53.2657 20.917C51.6594 20.917 50.3123 22.2146 50.3123 23.8755C50.3123 25.4845 51.6076 26.834 53.2657 26.834C53.8875 26.834 54.4575 26.6782 54.9238 26.3149L55.4937 26.8859L56.2192 26.1592L55.5974 25.5883C56.0119 25.1211 56.2192 24.4983 56.2192 23.8755Z" fill="#7B818B"/>
<path d="M61.9188 24.602C61.867 25.2768 61.297 25.7958 60.6234 25.7439C60.0017 25.692 59.5353 25.2249 59.4835 24.602V21.0726H58.499V24.602C58.5508 25.7958 59.5871 26.7301 60.7789 26.6782C61.9188 26.6263 62.7997 25.7439 62.8515 24.602V21.0726H61.867V24.602H61.9188Z" fill="#7B818B"/>
<path d="M66.634 21.0726H65.6495V26.6782H66.634V21.0726Z" fill="#7B818B"/>
<path d="M76.3751 22.0588H78.0332V26.7301H79.0177V22.0588H80.6758V21.0726H76.3751V22.0588Z" fill="#7B818B"/>
<path d="M89.2253 22.0588H90.8834V26.7301H91.8679V22.0588H93.526V21.0726H89.2253V22.0588Z" fill="#7B818B"/>
<path d="M82.9557 26.7301H87.1009V25.7439H83.9402V24.3425H86.6345V23.3564H83.9402V22.0588H87.1009V21.0726H82.9557V26.7301Z" fill="#7B818B"/>
<path d="M73.0072 24.9135L70.4682 21.0726H69.4838V26.7301H70.4682V22.8892L73.059 26.7301H73.9917V21.0726H73.0072V24.9135Z" fill="#7B818B"/>
<path d="M109.899 22.8892C109.899 23.3045 109.537 23.6678 109.122 23.6678H107.62V22.0588H109.122C109.537 22.1107 109.899 22.474 109.899 22.8892ZM111.454 26.7301L109.951 24.4463C110.832 23.9792 111.195 22.9411 110.728 22.0588C110.418 21.4879 109.796 21.0726 109.122 21.0726H106.635V26.7301H107.62V24.6539H108.863L110.262 26.7301H111.454Z" fill="#7B818B"/>
</g>
<defs>
<clipPath id="clip0">
<path d="M0 0H195V30H0V0Z" fill="white"/>
</clipPath>
</defs>
</svg>
