<?xml version="1.0" encoding="UTF-8" standalone="no"?>
<!DOCTYPE svg PUBLIC "-//W3C//DTD SVG 1.1//EN" "http://www.w3.org/Graphics/SVG/1.1/DTD/svg11.dtd">
<svg width="100%" height="100%" viewBox="0 0 500 500" version="1.1" xmlns="http://www.w3.org/2000/svg" xmlns:xlink="http://www.w3.org/1999/xlink" xml:space="preserve" xmlns:serif="http://www.serif.com/" style="fill-rule:evenodd;clip-rule:evenodd;stroke-linejoin:round;stroke-miterlimit:2;">
    <g transform="matrix(1.05887,0,0,1.05887,-14.7171,-14.7171)">
        <rect x="369.871" y="239.734" width="20.281" height="20.616"/>
    </g>
    <g transform="matrix(1.05887,0,0,1.05887,-14.7171,-14.7171)">
        <path d="M231.685,18.806C243.018,12.263 256.982,12.263 268.315,18.806L441.062,118.542C452.395,125.085 459.377,137.178 459.377,150.265L459.377,349.735C459.377,362.822 452.395,374.915 441.062,381.458L268.315,481.194C256.982,487.737 243.018,487.737 231.685,481.194L58.938,381.458C47.605,374.915 40.623,362.822 40.623,349.735L40.623,150.265C40.623,137.178 47.605,125.085 58.938,118.542L231.685,18.806ZM345.932,323.46L301.77,295.679C289.113,310.01 270.604,319.054 250,319.054C211.888,319.054 180.946,288.112 180.946,250C180.946,211.888 211.888,180.946 250,180.946C270.604,180.946 289.113,189.99 301.77,204.321L347.188,178.206C325.166,148.457 289.819,129.156 250,129.156C183.304,129.156 129.156,183.304 129.156,250C129.156,316.696 183.304,370.844 250,370.844C289.071,370.844 323.837,352.261 345.932,323.46ZM350.26,239.734L350.26,260.351L330.147,260.351L330.147,279.961L350.26,279.961L350.26,299.864L369.871,299.864L369.871,279.961L390.152,279.961L390.152,299.864L409.762,299.864L409.762,279.961L429.876,279.961L429.876,260.351L409.762,260.351L409.762,239.734L429.876,239.734L429.876,220.124L409.762,220.124L409.762,200.136L390.152,200.136L390.152,220.124L369.871,220.124L369.871,200.136L350.26,200.136L350.26,220.124L330.147,220.124L330.147,239.734L350.26,239.734Z"/>
    </g>
</svg>
