<?xml version="1.0" encoding="UTF-8" standalone="no"?>
<!DOCTYPE svg PUBLIC "-//W3C//DTD SVG 1.1//EN" "http://www.w3.org/Graphics/SVG/1.1/DTD/svg11.dtd">
<svg width="100%" height="100%" viewBox="0 0 291 330" version="1.1" xmlns="http://www.w3.org/2000/svg" xmlns:xlink="http://www.w3.org/1999/xlink" xml:space="preserve" xmlns:serif="http://www.serif.com/" style="fill-rule:evenodd;clip-rule:evenodd;stroke-linejoin:round;stroke-miterlimit:2;">
    <g id="polygon2989" transform="matrix(1,0,0,1,-8.44134e-06,-80.496)">
        <path d="M290.187,80.496L263.75,376.655L144.916,409.6L26.409,376.702L0,80.496L290.187,80.496ZM63.798,250.902L189.702,250.902L185.486,298.017L144.968,308.953L144.968,308.956L144.934,308.965L104.475,298.04L101.889,269.066L65.421,269.066L70.51,326.107L144.926,346.766L145.094,346.719L145.094,346.713L219.443,326.107L219.99,319.97L228.526,224.329L229.413,214.574L235.971,141.044L53.999,141.044L57.302,177.373L196.158,177.373L192.853,214.574L60.542,214.574L63.798,250.902Z" style="fill-rule:nonzero;"/>
    </g>
</svg>
