<?xml version="1.0" encoding="UTF-8" standalone="no"?>
<!DOCTYPE svg PUBLIC "-//W3C//DTD SVG 1.1//EN" "http://www.w3.org/Graphics/SVG/1.1/DTD/svg11.dtd">
<svg width="100%" height="100%" viewBox="0 0 363 412" version="1.1" xmlns="http://www.w3.org/2000/svg" xmlns:xlink="http://www.w3.org/1999/xlink" xml:space="preserve" xmlns:serif="http://www.serif.com/" style="fill-rule:evenodd;clip-rule:evenodd;stroke-linejoin:round;stroke-miterlimit:2;">
    <g transform="matrix(1,0,0,1,-74.633,-100.62)">
        <g>
            <g>
                <g>
                    <path d="M107.644,470.877L74.633,100.62L437.367,100.62L404.321,470.819L255.778,512L107.644,470.877ZM361.399,268.217L195.91,268.217L191.76,221.716L365.531,221.716L366.442,211.509L368.511,188.488L369.597,176.305L142.132,176.305L143.219,188.488L154.38,313.627L311.761,313.627L306.49,372.521L255.843,386.191L255.843,386.195L255.801,386.206L205.227,372.55L201.994,336.333L156.409,336.333L162.771,407.634L255.791,433.457L256,433.399L256,433.391L348.937,407.634L349.62,399.962L360.291,280.411L361.399,268.217Z" style="fill-rule:nonzero;"/>
                </g>
            </g>
        </g>
    </g>
</svg>
